<svg width="500" height="1500" viewBox="0 0 500 1500" fill="none" xmlns="http://www.w3.org/2000/svg">
<g clip-path="url(#clip0_2_2)">
<path d="M0 1650C82.8427 1650 150 1582.84 150 1500C150 1417.16 82.8427 1350 0 1350C-82.8427 1350 -150 1417.16 -150 1500" stroke="white" stroke-width="10"/>
<path d="M5.96046e-06 1700C110.457 1700 200 1610.46 200 1500C200 1389.54 110.457 1300 5.96046e-06 1300C-110.457 1300 -200 1389.54 -200 1500" stroke="white" stroke-width="10"/>
<path d="M-9.5 760.5C151.833 840.333 583 1326.5 457 1508.5" stroke="white" stroke-width="10"/>
<path d="M-39.5 800.5C121.833 880.333 523 1336.5 397 1518.5" stroke="white" stroke-width="10"/>
<path d="M-99.5 810.5C61.8333 890.333 463 1346.5 337 1528.5" stroke="white" stroke-width="10"/>
<path d="M-159.5 820.5C1.83333 900.333 403 1356.5 277 1538.5" stroke="white" stroke-width="10"/>
<path d="M-219.5 830.5C-58.1667 910.333 343 1366.5 217 1548.5" stroke="white" stroke-width="10"/>
</g>
<defs>
<clipPath id="clip0_2_2">
<rect width="500" height="1500" fill="white"/>
</clipPath>
</defs>
</svg>
