<svg width="500" height="1500" viewBox="0 0 500 1500" fill="none" xmlns="http://www.w3.org/2000/svg">
<g clip-path="url(#clip0_1_2)">
<path d="M500 1500L500 0L-3.05176e-05 0L-3.05176e-05 1500H500Z" fill="#111111"/>
<path d="M-25 955C230.755 1230 306.294 1395 224.497 1505" stroke="white" stroke-width="10"/>
<path d="M-75 955C180.755 1230 256.294 1395 174.497 1505" stroke="white" stroke-width="10"/>
<path d="M1 1625C81.0813 1625 146 1560.08 146 1480C146 1399.92 81.0813 1335 1 1335H-123.5" stroke="white" stroke-width="10"/>
<path d="M0 1575C52.4671 1575 95 1532.47 95 1480C95 1427.53 52.4671 1385 0 1385H-92.5" stroke="white" stroke-width="10"/>
<path d="M274.497 1505C356.294 1395 280.755 1230 25 955C-230.755 680 -306.294 515 -224.497 405" stroke="white" stroke-width="10"/>
<path d="M324.497 1505C406.294 1395 330.755 1230 75 955C-180.755 680 -256.294 515 -174.497 405" stroke="white" stroke-width="10"/>
<path d="M374.497 1505C456.294 1395 380.755 1230 125 955C-130.755 680 -206.294 515 -124.497 405" stroke="white" stroke-width="10"/>
<path d="M181 955C431.294 1230 505.22 1395 425.169 1505M181.5 955.5C-74.2548 680.5 -149.794 515.5 -67.9968 405.5" stroke="white" stroke-width="10"/>
</g>
<defs>
<clipPath id="clip0_1_2">
<rect width="500" height="1500" fill="white"/>
</clipPath>
</defs>
</svg>
